<mxfile host="Electron" modified="2024-06-17T19:17:13.887Z" agent="Mozilla/5.0 (X11; Linux x86_64) AppleWebKit/537.36 (KHTML, like Gecko) draw.io/22.0.2 Chrome/114.0.5735.289 Electron/25.8.4 Safari/537.36" etag="PaXbK0x_E6PrdxKwi0D4" version="22.0.2" type="device">
  <diagram name="PÃ gina-1" id="IxYWWTzPHsdPAGy0Ay2p">
    <mxGraphModel dx="1434" dy="883" grid="1" gridSize="10" guides="1" tooltips="1" connect="1" arrows="1" fold="1" page="1" pageScale="1" pageWidth="1169" pageHeight="1654" math="0" shadow="0">
      <root>
        <mxCell id="0" />
        <mxCell id="1" parent="0" />
        <mxCell id="sENCa7EgpjyNLpazRj3D-10" value="" style="group" vertex="1" connectable="0" parent="1">
          <mxGeometry x="90" y="280" width="600" height="60" as="geometry" />
        </mxCell>
        <mxCell id="sENCa7EgpjyNLpazRj3D-5" value="" style="rounded=0;whiteSpace=wrap;html=1;" vertex="1" parent="sENCa7EgpjyNLpazRj3D-10">
          <mxGeometry width="120" height="60" as="geometry" />
        </mxCell>
        <mxCell id="sENCa7EgpjyNLpazRj3D-6" value="" style="rounded=0;whiteSpace=wrap;html=1;" vertex="1" parent="sENCa7EgpjyNLpazRj3D-10">
          <mxGeometry x="120" width="120" height="60" as="geometry" />
        </mxCell>
        <mxCell id="sENCa7EgpjyNLpazRj3D-7" value="" style="rounded=0;whiteSpace=wrap;html=1;" vertex="1" parent="sENCa7EgpjyNLpazRj3D-10">
          <mxGeometry x="240" width="120" height="60" as="geometry" />
        </mxCell>
        <mxCell id="sENCa7EgpjyNLpazRj3D-8" value="" style="rounded=0;whiteSpace=wrap;html=1;" vertex="1" parent="sENCa7EgpjyNLpazRj3D-10">
          <mxGeometry x="360" width="120" height="60" as="geometry" />
        </mxCell>
        <mxCell id="sENCa7EgpjyNLpazRj3D-9" value="" style="rounded=0;whiteSpace=wrap;html=1;" vertex="1" parent="sENCa7EgpjyNLpazRj3D-10">
          <mxGeometry x="480" width="120" height="60" as="geometry" />
        </mxCell>
        <mxCell id="sENCa7EgpjyNLpazRj3D-11" value="" style="group" vertex="1" connectable="0" parent="1">
          <mxGeometry x="150" y="400" width="480" height="60" as="geometry" />
        </mxCell>
        <mxCell id="sENCa7EgpjyNLpazRj3D-1" value="" style="rounded=0;whiteSpace=wrap;html=1;" vertex="1" parent="sENCa7EgpjyNLpazRj3D-11">
          <mxGeometry width="120" height="60" as="geometry" />
        </mxCell>
        <mxCell id="sENCa7EgpjyNLpazRj3D-2" value="" style="rounded=0;whiteSpace=wrap;html=1;" vertex="1" parent="sENCa7EgpjyNLpazRj3D-11">
          <mxGeometry x="120" width="120" height="60" as="geometry" />
        </mxCell>
        <mxCell id="sENCa7EgpjyNLpazRj3D-3" value="" style="rounded=0;whiteSpace=wrap;html=1;" vertex="1" parent="sENCa7EgpjyNLpazRj3D-11">
          <mxGeometry x="240" width="120" height="60" as="geometry" />
        </mxCell>
        <mxCell id="sENCa7EgpjyNLpazRj3D-4" value="" style="rounded=0;whiteSpace=wrap;html=1;" vertex="1" parent="sENCa7EgpjyNLpazRj3D-11">
          <mxGeometry x="360" width="120" height="60" as="geometry" />
        </mxCell>
        <mxCell id="sENCa7EgpjyNLpazRj3D-12" value="Objetos" style="text;html=1;strokeColor=none;fillColor=none;align=center;verticalAlign=middle;whiteSpace=wrap;rounded=0;fontSize=18;fontStyle=1" vertex="1" parent="1">
          <mxGeometry x="740" y="295" width="60" height="30" as="geometry" />
        </mxCell>
        <mxCell id="sENCa7EgpjyNLpazRj3D-13" value="Cajas" style="text;html=1;strokeColor=none;fillColor=none;align=center;verticalAlign=middle;whiteSpace=wrap;rounded=0;fontSize=18;fontStyle=1" vertex="1" parent="1">
          <mxGeometry x="740" y="415" width="60" height="30" as="geometry" />
        </mxCell>
        <mxCell id="sENCa7EgpjyNLpazRj3D-14" value="" style="shape=flexArrow;endArrow=classic;startArrow=classic;html=1;rounded=0;" edge="1" parent="1">
          <mxGeometry width="100" height="100" relative="1" as="geometry">
            <mxPoint x="769.5" y="400" as="sourcePoint" />
            <mxPoint x="769.5" y="340" as="targetPoint" />
            <Array as="points">
              <mxPoint x="769.5" y="370" />
            </Array>
          </mxGeometry>
        </mxCell>
        <mxCell id="sENCa7EgpjyNLpazRj3D-15" value="" style="rounded=0;whiteSpace=wrap;html=1;" vertex="1" parent="1">
          <mxGeometry x="330" y="510" width="120" height="60" as="geometry" />
        </mxCell>
        <mxCell id="sENCa7EgpjyNLpazRj3D-17" value="" style="shape=flexArrow;endArrow=classic;startArrow=classic;html=1;rounded=0;" edge="1" parent="1">
          <mxGeometry width="100" height="100" relative="1" as="geometry">
            <mxPoint x="769.5" y="520" as="sourcePoint" />
            <mxPoint x="769.5" y="460" as="targetPoint" />
            <Array as="points">
              <mxPoint x="769.5" y="490" />
            </Array>
          </mxGeometry>
        </mxCell>
        <mxCell id="sENCa7EgpjyNLpazRj3D-18" value="Organizador" style="text;html=1;strokeColor=none;fillColor=none;align=center;verticalAlign=middle;whiteSpace=wrap;rounded=0;fontSize=18;fontStyle=1" vertex="1" parent="1">
          <mxGeometry x="665" y="525" width="210" height="30" as="geometry" />
        </mxCell>
        <mxCell id="sENCa7EgpjyNLpazRj3D-19" value="" style="shape=flexArrow;endArrow=classic;html=1;rounded=0;" edge="1" parent="1">
          <mxGeometry width="50" height="50" relative="1" as="geometry">
            <mxPoint x="390" y="250" as="sourcePoint" />
            <mxPoint x="390" y="180" as="targetPoint" />
          </mxGeometry>
        </mxCell>
        <mxCell id="sENCa7EgpjyNLpazRj3D-20" value="&lt;b&gt;&lt;font style=&quot;font-size: 14px;&quot;&gt;Acciones&lt;/font&gt;&lt;/b&gt;" style="text;html=1;strokeColor=none;fillColor=none;align=center;verticalAlign=middle;whiteSpace=wrap;rounded=0;" vertex="1" parent="1">
          <mxGeometry x="420" y="195" width="60" height="30" as="geometry" />
        </mxCell>
        <mxCell id="sENCa7EgpjyNLpazRj3D-21" value="" style="shape=curlyBracket;whiteSpace=wrap;html=1;rounded=1;labelPosition=left;verticalLabelPosition=middle;align=right;verticalAlign=middle;" vertex="1" parent="1">
          <mxGeometry x="490" y="150" width="20" height="110" as="geometry" />
        </mxCell>
        <mxCell id="sENCa7EgpjyNLpazRj3D-22" value="&lt;b&gt;[ Objetos sin caja ]&lt;/b&gt; =&amp;gt; introducir en la caja seleccionada" style="text;html=1;strokeColor=none;fillColor=none;align=left;verticalAlign=middle;whiteSpace=wrap;rounded=0;" vertex="1" parent="1">
          <mxGeometry x="510" y="150" width="430" height="30" as="geometry" />
        </mxCell>
        <mxCell id="sENCa7EgpjyNLpazRj3D-23" value="&lt;b&gt;[ Objetos de una caja ]&lt;/b&gt; =&amp;gt; sacar de la caja o cambiar de caja (no se muy bien como)" style="text;html=1;strokeColor=none;fillColor=none;align=left;verticalAlign=middle;whiteSpace=wrap;rounded=0;" vertex="1" parent="1">
          <mxGeometry x="510" y="225" width="470" height="30" as="geometry" />
        </mxCell>
        <mxCell id="sENCa7EgpjyNLpazRj3D-24" value="" style="shape=flexArrow;endArrow=classic;startArrow=classic;html=1;rounded=0;" edge="1" parent="1">
          <mxGeometry width="100" height="100" relative="1" as="geometry">
            <mxPoint x="769.5" y="620" as="sourcePoint" />
            <mxPoint x="769.5" y="560" as="targetPoint" />
            <Array as="points">
              <mxPoint x="769.5" y="590" />
            </Array>
          </mxGeometry>
        </mxCell>
        <mxCell id="sENCa7EgpjyNLpazRj3D-25" value="" style="rounded=0;whiteSpace=wrap;html=1;" vertex="1" parent="1">
          <mxGeometry x="330" y="620" width="120" height="60" as="geometry" />
        </mxCell>
        <mxCell id="sENCa7EgpjyNLpazRj3D-26" value="Artefactos del usuario" style="text;html=1;strokeColor=none;fillColor=none;align=center;verticalAlign=middle;whiteSpace=wrap;rounded=0;fontSize=18;fontStyle=1" vertex="1" parent="1">
          <mxGeometry x="665" y="635" width="210" height="30" as="geometry" />
        </mxCell>
        <mxCell id="sENCa7EgpjyNLpazRj3D-28" value="" style="shape=curlyBracket;whiteSpace=wrap;html=1;rounded=1;labelPosition=left;verticalLabelPosition=middle;align=right;verticalAlign=middle;" vertex="1" parent="1">
          <mxGeometry x="830" y="325" width="20" height="105" as="geometry" />
        </mxCell>
        <mxCell id="sENCa7EgpjyNLpazRj3D-29" value="Objetos de la caja" style="text;html=1;strokeColor=none;fillColor=none;align=left;verticalAlign=middle;whiteSpace=wrap;rounded=0;" vertex="1" parent="1">
          <mxGeometry x="850" y="340" width="130" height="30" as="geometry" />
        </mxCell>
        <mxCell id="sENCa7EgpjyNLpazRj3D-30" value="Objetos sin caja" style="text;html=1;strokeColor=none;fillColor=none;align=left;verticalAlign=middle;whiteSpace=wrap;rounded=0;" vertex="1" parent="1">
          <mxGeometry x="850" y="385" width="130" height="30" as="geometry" />
        </mxCell>
      </root>
    </mxGraphModel>
  </diagram>
</mxfile>
